<?xml version="1.0" standalone="no"?><!DOCTYPE svg PUBLIC "-//W3C//DTD SVG 1.1//EN" "http://www.w3.org/Graphics/SVG/1.1/DTD/svg11.dtd"><svg class="icon" width="200px" height="185.84px" viewBox="0 0 1102 1024" version="1.1" xmlns="http://www.w3.org/2000/svg"><path d="M666.624 164.627692H434.491077a35.446154 35.446154 0 0 1 0-70.892307h232.132923a35.446154 35.446154 0 0 1 0 70.892307z"  /><path d="M972.8 93.735385h-61.282462a35.446154 35.446154 0 0 0 0 70.892307h61.282462c25.442462 0 46.237538 20.637538 46.237538 46.15877V300.110769H90.584615V210.786462c0-25.442462 20.716308-46.158769 46.237539-46.15877h56.004923a35.446154 35.446154 0 0 0 0-70.892307h-56.004923C72.231385 93.735385 19.692308 146.274462 19.692308 210.786462v692.224c0 64.590769 52.539077 117.129846 117.129846 117.129846H972.8c64.590769 0 117.129846-52.539077 117.129846-117.129846V210.786462c0-64.590769-52.539077-117.051077-117.129846-117.051077z m0 855.433846H136.743385a46.237538 46.237538 0 0 1-46.237539-46.237539V371.003077h928.452923v531.928615a46.158769 46.158769 0 0 1-46.158769 46.237539z"  /><path d="M315.155692 222.916923a35.446154 35.446154 0 0 1-35.446154-35.446154V72.704a35.446154 35.446154 0 0 1 70.892308 0V187.470769c0 19.692308-15.753846 35.446154-35.446154 35.446154z m469.149539 0a35.446154 35.446154 0 0 1-35.446154-35.446154V72.704a35.446154 35.446154 0 0 1 70.892308 0V187.470769c0 19.692308-15.753846 35.446154-35.446154 35.446154zM599.276308 672.295385v156.750769h-63.251693v-157.538462L403.692308 497.821538l66.56 0.393847 98.067692 129.417846 97.988923-129.417846h65.378462l-132.332308 174.08z"  /></svg>